<svg xmlns="http://www.w3.org/2000/svg" viewBox="0 0 396.02 67.66"><g id="Layer_2" data-name="Layer 2"><g id="Layer_1-2" data-name="Layer 1"><rect x="33.43" width="329.44" height="67.66" style="fill:#1db954"/><circle cx="33.83" cy="33.83" r="33.83" style="fill:#1db954"/><circle cx="362.19" cy="33.83" r="33.83" style="fill:#1db954"/><g id="Rbs1w3.tif"><path d="M48.78,12.74a21,21,0,1,0,21,21,21,21,0,0,0-21-21Zm9.64,30.31a1.31,1.31,0,0,1-1.8.43c-4.94-3-11.15-3.7-18.46-2a1.31,1.31,0,1,1-.58-2.55c8-1.83,14.87-1,20.4,2.34A1.32,1.32,0,0,1,58.42,43.05ZM61,37.32a1.63,1.63,0,0,1-2.25.54c-5.65-3.47-14.26-4.47-20.94-2.45a1.64,1.64,0,1,1-.95-3.13C44.48,30,54,31.09,60.45,35.07A1.64,1.64,0,0,1,61,37.32Zm.22-5.95c-6.77-4-17.94-4.4-24.41-2.43a2,2,0,1,1-1.14-3.76c7.42-2.26,19.76-1.82,27.56,2.81a2,2,0,0,1-2,3.38Z" style="fill:#fff"/></g><path d="M99.54,43.1a11.54,11.54,0,0,1-4.67.83c-5,0-8.73-3.14-8.73-8.94,0-5.53,3.75-9.27,9.23-9.27a9.54,9.54,0,0,1,4.19.78L99,28.36a8.29,8.29,0,0,0-3.56-.73c-4.15,0-6.9,2.65-6.9,7.29,0,4.32,2.49,7.1,6.79,7.1a9.18,9.18,0,0,0,3.72-.73Z" style="fill:#fff"/><path d="M117,34.65c0,6.09-3.7,9.31-8.21,9.31s-7.94-3.62-7.94-9c0-5.6,3.48-9.27,8.2-9.27S117,29.41,117,34.65Zm-13.71.29c0,3.78,2,7.16,5.63,7.16s5.66-3.33,5.66-7.34c0-3.51-1.83-7.18-5.63-7.18S103.24,31.06,103.24,34.94Z" style="fill:#fff"/><path d="M119.91,43.67V26h2.49l5.67,8.94a50.08,50.08,0,0,1,3.17,5.74l0,0c-.21-2.36-.26-4.51-.26-7.26V26h2.15V43.67h-2.31l-5.61-9a57,57,0,0,1-3.3-5.9l-.08,0c.13,2.23.18,4.36.18,7.29v7.55Z" style="fill:#fff"/><path d="M137.17,43.67V26h2.49l5.66,8.94a50.08,50.08,0,0,1,3.17,5.74l0,0c-.21-2.36-.26-4.51-.26-7.26V26h2.15V43.67h-2.31l-5.61-9a57,57,0,0,1-3.3-5.9l-.08,0c.13,2.23.19,4.36.19,7.29v7.55Z" style="fill:#fff"/><path d="M163.57,35.39H156.7v6.37h7.66v1.91h-9.94V26H164v1.92H156.7V33.5h6.87Z" style="fill:#fff"/><path d="M179.67,43.1a11.54,11.54,0,0,1-4.67.83c-5,0-8.73-3.14-8.73-8.94,0-5.53,3.75-9.27,9.23-9.27a9.54,9.54,0,0,1,4.19.78l-.55,1.86a8.25,8.25,0,0,0-3.56-.73c-4.14,0-6.9,2.65-6.9,7.29,0,4.32,2.49,7.1,6.79,7.1a9.27,9.27,0,0,0,3.73-.73Z" style="fill:#fff"/><path d="M186.62,27.94h-5.38V26h13.09v1.94h-5.4V43.67h-2.31Z" style="fill:#fff"/><path d="M206,43.67,201.51,26h2.42L206,34.94c.53,2.2,1,4.41,1.31,6.11h.06c.28-1.76.84-3.85,1.44-6.13L211.19,26h2.38l2.15,9c.5,2.1,1,4.19,1.23,6.05H217c.36-1.94.86-3.9,1.41-6.1L220.76,26h2.33l-5,17.67H215.7l-2.23-9.2a54,54,0,0,1-1.16-5.77h-.05a55.09,55.09,0,0,1-1.36,5.77l-2.52,9.2Z" style="fill:#fff"/><path d="M227.58,26V43.67H225.3V26Z" style="fill:#fff"/><path d="M234.92,27.94h-5.38V26h13.09v1.94h-5.4V43.67h-2.31Z" style="fill:#fff"/><path d="M246.88,26v7.4h8.54V26h2.31V43.67h-2.31V35.39h-8.54v8.28H244.6V26Z" style="fill:#fff"/><path d="M268.19,40.89a8.11,8.11,0,0,0,4.09,1.16c2.34,0,3.7-1.24,3.7-3s-.94-2.59-3.33-3.51c-2.88-1-4.67-2.52-4.67-5,0-2.75,2.29-4.79,5.72-4.79a7.94,7.94,0,0,1,3.9.86L277,28.44a7.12,7.12,0,0,0-3.36-.84c-2.41,0-3.33,1.44-3.33,2.65,0,1.65,1.08,2.46,3.51,3.41,3,1.15,4.51,2.59,4.51,5.19s-2,5.08-6.18,5.08a9.1,9.1,0,0,1-4.51-1.12Z" style="fill:#fff"/><path d="M281.44,26.21a26.77,26.77,0,0,1,4.37-.34,7.29,7.29,0,0,1,5,1.47,4.74,4.74,0,0,1,1.54,3.7A5.2,5.2,0,0,1,291,34.81a8.89,8.89,0,0,1-7.23,1.78v7.08h-2.28Zm2.28,8.52a7.61,7.61,0,0,0,1.88.19c2.76,0,4.43-1.34,4.43-3.78s-1.65-3.46-4.16-3.46a9.89,9.89,0,0,0-2.15.18Z" style="fill:#fff"/><path d="M310.48,34.65c0,6.09-3.69,9.31-8.2,9.31-4.67,0-7.94-3.62-7.94-9,0-5.6,3.48-9.27,8.2-9.27S310.48,29.41,310.48,34.65Zm-13.71.29c0,3.78,2.05,7.16,5.64,7.16s5.66-3.33,5.66-7.34c0-3.51-1.83-7.18-5.63-7.18S296.77,31.06,296.77,34.94Z" style="fill:#fff"/><path d="M316.15,27.94h-5.37V26h13.08v1.94h-5.4V43.67h-2.31Z" style="fill:#fff"/><path d="M328.11,26V43.67h-2.28V26Z" style="fill:#fff"/><path d="M332.1,26h9.51v1.92h-7.23v5.87h6.68v1.89h-6.68v8H332.1Z" style="fill:#fff"/><path d="M348.8,43.67v-7.5L343.21,26h2.6l2.49,4.88c.68,1.34,1.21,2.41,1.76,3.64h.05c.5-1.15,1.1-2.3,1.78-3.64L354.43,26H357L351.1,36.15v7.52Z" style="fill:#fff"/></g></g></svg>