<svg xmlns="http://www.w3.org/2000/svg" xmlns:xlink="http://www.w3.org/1999/xlink" viewBox="0 0 158.28 138.74"><defs><clipPath id="clip-path" transform="translate(-5.68 -6.81)"><rect width="54.59" height="32.91" transform="translate(54.59 32.91) rotate(180)" style="fill:none"/></clipPath><clipPath id="clip-path-2" transform="translate(-5.68 -6.81)"><polyline points="19.34 31 150.83 31 150.83 102.06 19.34 102.06" style="fill:none"/></clipPath></defs><g id="Layer_2" data-name="Layer 2"><g id="Layer_1-2" data-name="Layer 1"><path d="M54.82,65v9.73h8.83v4.69H54.82V97.68c0,4.2,1.19,6.58,4.63,6.58a13.7,13.7,0,0,0,3.57-.42l.28,4.62a15.1,15.1,0,0,1-5.47.84,8.54,8.54,0,0,1-6.65-2.59c-1.75-1.82-2.38-4.83-2.38-8.82V79.41H43.55V74.72H48.8V66.6Z" transform="translate(-5.68 -6.81)" style="fill:#231f20"/><path d="M89.34,108.6l-.49-4.27h-.21a12.65,12.65,0,0,1-10.37,5c-6.86,0-10.36-4.83-10.36-9.73,0-8.19,7.28-12.67,20.38-12.6v-.7c0-2.8-.77-7.84-7.71-7.84A16.88,16.88,0,0,0,71.76,81L70.36,77a21,21,0,0,1,11.13-3C91.86,74,94.38,81,94.38,87.81v12.67a47.7,47.7,0,0,0,.56,8.12Zm-.91-17.29c-6.73-.14-14.36,1-14.36,7.63,0,4,2.66,5.88,5.81,5.88a8.44,8.44,0,0,0,8.2-5.67,6.43,6.43,0,0,0,.35-2Z" transform="translate(-5.68 -6.81)" style="fill:#231f20"/><path d="M104,108.6c.14-2.31.28-5.74.28-8.75V58.9h6.09V80.18h.14C112.71,76.4,116.63,74,122.1,74c8.4,0,14.35,7,14.28,17.29,0,12.11-7.63,18.13-15.19,18.13-4.91,0-8.83-1.89-11.35-6.37h-.21l-.28,5.6ZM110.4,95a11.53,11.53,0,0,0,.28,2.24,9.5,9.5,0,0,0,9.24,7.21c6.45,0,10.3-5.25,10.3-13,0-6.79-3.5-12.6-10.09-12.6a9.82,9.82,0,0,0-9.38,7.56,12.14,12.14,0,0,0-.35,2.52Z" transform="translate(-5.68 -6.81)" style="fill:#231f20"/><path d="M143.3,102.3a16.14,16.14,0,0,0,8.12,2.45c4.48,0,6.58-2.24,6.58-5s-1.75-4.55-6.3-6.23c-6.09-2.17-9-5.53-9-9.59,0-5.46,4.41-9.94,11.69-9.94a16.91,16.91,0,0,1,8.33,2.1l-1.54,4.48a13.19,13.19,0,0,0-6.93-2c-3.64,0-5.67,2.1-5.67,4.62,0,2.8,2,4.06,6.44,5.74,5.88,2.24,8.89,5.18,8.89,10.22,0,5.95-4.62,10.15-12.67,10.15a19.32,19.32,0,0,1-9.52-2.31Z" transform="translate(-5.68 -6.81)" style="fill:#231f20"/><g style="clip-path:url(#clip-path)"><path d="M24.87,25.86c-.19.64-.37,1.29-.58,1.93a1.59,1.59,0,0,0,.14,1.51c.45.54,1.17.84,1.51,1.49a2.16,2.16,0,0,1,.16,1.1l0,3.19c1.81-.12,3.61-.14,5.42-.16h.77c0-1,0-2.06,0-3.09a16.36,16.36,0,0,1,.7-5.69c.33-1.14.79-2.24,1.2-3.36A11.12,11.12,0,0,0,35,18.33a6.76,6.76,0,0,0-.75-2.75c-.17-.36-.47-.69-.43-1.12.11-1,1-1.65,1.34-2.53a3.3,3.3,0,0,0,.16-2.61,3.58,3.58,0,0,0-1.9-2.1,3,3,0,0,0-2.28,0,1.91,1.91,0,0,0-.92,1l-.32-.09-.28,0a7.53,7.53,0,0,0,.13-1.05l-1-.28h-.1a2.4,2.4,0,0,0-.83,2.69,5.19,5.19,0,0,0,1.09.37A5.66,5.66,0,0,0,29.31,9a3.68,3.68,0,0,1,.49.23c-.24.75-.46,1.51-.68,2.27l-.23-.06-.31,0a5.37,5.37,0,0,0,.12-1.05l-1.11-.28a2.39,2.39,0,0,0-.86,2.7,5.27,5.27,0,0,0,1.1.37,5.86,5.86,0,0,0,.48-.89,4.52,4.52,0,0,0,.49.25c-.22.75-.43,1.5-.66,2.24l-.27-.07-.28,0a6.15,6.15,0,0,0,.13-1c-.34-.07-.67-.19-1-.25s-.33.14-.46.25a2.49,2.49,0,0,0-.58,2.2c0,.1,0,.21.15.24a3.37,3.37,0,0,0,1,.34,7,7,0,0,0,.48-.9l.23.16.27.1c-.23.76-.45,1.53-.67,2.29a2.09,2.09,0,0,0-.56,0,5.2,5.2,0,0,0,.12-1.05c-.37-.07-.73-.21-1.1-.26a1.61,1.61,0,0,0-.68.71,2.45,2.45,0,0,0-.19,2,5.27,5.27,0,0,0,1.1.37c.2-.26.3-.61.5-.86.17.05.32.16.48.22-.21.77-.46,1.54-.67,2.31a3.63,3.63,0,0,0-.57,0,6,6,0,0,0,.13-1l-1.12-.29a2.38,2.38,0,0,0-1,2,1.28,1.28,0,0,0,.16.67,3,3,0,0,0,1.05.36,3.3,3.3,0,0,0,.5-.88,3.6,3.6,0,0,0,.52.26c-.21.73-.43,1.46-.65,2.19a2.35,2.35,0,0,0-.59-.05,8.63,8.63,0,0,0,.14-1,11.09,11.09,0,0,0-1.1-.28,1.15,1.15,0,0,0-.54.46,2.47,2.47,0,0,0-.41,2c0,.08,0,.19.13.23a4.64,4.64,0,0,0,1,.35,6.49,6.49,0,0,0,.48-.9A2.24,2.24,0,0,0,24.87,25.86Z" transform="translate(-5.68 -6.81)" style="fill:#010101"/><path d="M32.3,38.09h-.92l-1.56.31q-.53.14-1.05.24a.43.43,0,0,0,0,.07v0l0,0,0,.09a.54.54,0,0,1,.3.23.52.52,0,0,1-.18.69.83.83,0,0,1-1,.05.5.5,0,0,1-.25-.43,3.71,3.71,0,0,1,.11-.58L26,39.16c0,1.5,0,3-.05,4.49h6.42c0-.95,0-1.91,0-2.86S32.31,39,32.3,38.09Zm-.82,1.47a.47.47,0,0,1-.48-.48.45.45,0,0,1-.4.22.5.5,0,0,1,0-1,.47.47,0,0,1,.48.47.45.45,0,0,1,.4-.21A.5.5,0,0,1,31.48,39.56Z" transform="translate(-5.68 -6.81)" style="fill:#010101"/><path d="M51,124a58.76,58.76,0,0,0-3.61-8.5,20,20,0,0,1-1-2.59,14.18,14.18,0,0,1-.94-4.59A14.36,14.36,0,0,1,46.49,103c.51-1.25,1-2.5,1.44-3.8a16.55,16.55,0,0,0,.87-6.39,6.51,6.51,0,0,0-1.71-4,2.14,2.14,0,0,0-1.82-.7,2.58,2.58,0,0,0-1.88,1.23,12,12,0,0,0-1.1,2.76,10.88,10.88,0,0,1-1.74,3.3,5.4,5.4,0,0,1-1,1,5,5,0,0,1-3.23,1.22,3.22,3.22,0,0,1-2.48-1.46,4.81,4.81,0,0,1-.82-2.33c0-1.78-.06-3.55-.08-5.33,0-1.07,0-2.13,0-3.2-.07-2.19,0-4.38-.11-6.57,0-1.17,0-2.35,0-3.53-.09-2.12,0-4.25-.11-6.38,0-1.94,0-3.89-.08-5.83,0-1.73,0-3.46-.07-5.18s0-3.36-.06-5c-.06-2.25,0-4.51-.11-6.77v-.45c-2.15,0-4.3-.05-6.45-.06,0,1.29,0,2.58,0,3.86-.07,2.19-.05,4.37-.09,6.56,0,1.9,0,3.79-.06,5.69s-.07,4-.07,6c-.05,2.17-.07,4.33-.08,6.5-.07,2.42,0,4.86-.09,7.28-.06,2.07,0,4.13-.08,6.2A2.62,2.62,0,0,1,25.27,89a1.34,1.34,0,0,1-1.12.75,4.43,4.43,0,0,1-2-.63,23.83,23.83,0,0,0-4.28-1.77l.31,0c0-.17-.16-.26-.28-.36h-.09c0-.11,0-.21,0-.32l.19,0,.75-.5a.63.63,0,0,0-.36-.23,12.34,12.34,0,0,0-1.71-.35.74.74,0,0,0-.44.07c.21.28.34.64.66.82,0,.1,0,.19-.05.28l-.25,0h-.17s0,.12,0,.16l.24.14a7.66,7.66,0,0,0-2.66.16,5.83,5.83,0,0,0-3.53,2.63,7.38,7.38,0,0,0-.91,3.22,16.55,16.55,0,0,0,.72,5.41,31.89,31.89,0,0,0,1.32,3.7,14.07,14.07,0,0,1,1.28,4.53,12.23,12.23,0,0,1-.58,5.09,33.13,33.13,0,0,1-1.48,3.41c-1.09,2.28-2.23,4.54-3.16,6.9a25.1,25.1,0,0,0-2,8.52,13.1,13.1,0,0,0,1.57,6.66,15.77,15.77,0,0,0,4.46,5,10.17,10.17,0,0,0,2.61,1.32,25.48,25.48,0,0,0,5.09,1.14,64,64,0,0,0,7.45.52c.47,0,.94,0,1.42,0-.14.05-.29.09-.28.27a15.09,15.09,0,0,1,1.78,0c0-.16-.14-.22-.27-.27,1.44,0,2.88,0,4.31-.05a37.31,37.31,0,0,0,9-1.23,10.83,10.83,0,0,0,3.8-1.92,16.06,16.06,0,0,0,4-4.9,13.46,13.46,0,0,0,1.39-4.73A21.14,21.14,0,0,0,51,124Z" transform="translate(-5.68 -6.81)" style="fill:#010101"/></g><g style="clip-path:url(#clip-path-2)"><path d="M25.83,72.34c.14-2.31.28-5.74.28-8.75v-41H32.2V43.92h.14c2.17-3.78,6.09-6.23,11.55-6.23,8.4,0,14.35,7,14.28,17.29,0,12.11-7.63,18.13-15.19,18.13-4.9,0-8.82-1.89-11.34-6.37h-.21l-.28,5.6ZM32.2,58.76A11.53,11.53,0,0,0,32.48,61a9.5,9.5,0,0,0,9.24,7.21C48.16,68.21,52,63,52,55.19c0-6.79-3.5-12.6-10.08-12.6a9.82,9.82,0,0,0-9.38,7.56,12.14,12.14,0,0,0-.35,2.52Z" transform="translate(-5.68 -6.81)" style="fill:#231f20"/><path d="M96.6,55.12c0,12.53-8.68,18-16.87,18-9.17,0-16.24-6.72-16.24-17.43,0-11.34,7.42-18,16.8-18C90,37.69,96.6,44.76,96.6,55.12Zm-26.88.35c0,7.42,4.27,13,10.29,13S90.3,63,90.3,55.33c0-5.74-2.87-13-10.15-13S69.72,49,69.72,55.47Z" transform="translate(-5.68 -6.81)" style="fill:#231f20"/><path d="M104.37,49.52c0-4.34-.14-7.84-.28-11.06h5.53l.28,5.81H110a13.32,13.32,0,0,1,12-6.58c8.19,0,14.35,6.93,14.35,17.22,0,12.18-7.42,18.2-15.4,18.2-4.48,0-8.4-2-10.43-5.32h-.14V86.2h-6.09Zm6.09,9a13.87,13.87,0,0,0,.28,2.52A9.5,9.5,0,0,0,120,68.28c6.51,0,10.29-5.32,10.29-13.09,0-6.79-3.57-12.6-10.08-12.6a9.83,9.83,0,0,0-9.31,7.63,10,10,0,0,0-.42,2.52Z" transform="translate(-5.68 -6.81)" style="fill:#231f20"/></g></g></g></svg>