<svg id="Layer_1" data-name="Layer 1" xmlns="http://www.w3.org/2000/svg" viewBox="0 0 140.13 40.52"><rect x="64.01" width="76.11" height="40.52" rx="10.07"/><path d="M15.89,71.64v2.74H13.53V48.17h2.36V61H16a6.64,6.64,0,0,1,2.7-2.4,7.62,7.62,0,0,1,3.43-.82,8.7,8.7,0,0,1,3.45.66,7.79,7.79,0,0,1,2.63,1.8,8,8,0,0,1,1.7,2.71,9.56,9.56,0,0,1,0,6.72,8,8,0,0,1-1.7,2.7,7.67,7.67,0,0,1-2.63,1.81,8.88,8.88,0,0,1-3.45.65A7.86,7.86,0,0,1,18.66,74,6.61,6.61,0,0,1,16,71.64ZM28,66.27a7.92,7.92,0,0,0-.41-2.55,6.2,6.2,0,0,0-1.2-2.08,5.54,5.54,0,0,0-1.92-1.4,6.63,6.63,0,0,0-5.1,0,5.87,5.87,0,0,0-2,1.39,6.16,6.16,0,0,0-1.3,2.08,7,7,0,0,0-.47,2.58,7.08,7.08,0,0,0,.47,2.58,6.07,6.07,0,0,0,1.3,2.06,6,6,0,0,0,2,1.37,6.1,6.1,0,0,0,2.5.5,6.32,6.32,0,0,0,2.6-.5,5.4,5.4,0,0,0,1.92-1.39,6.1,6.1,0,0,0,1.2-2.08A7.82,7.82,0,0,0,28,66.27Z" transform="translate(-13.53 -43.52)" style="fill:#fff"/><path d="M51.66,66.27A8.79,8.79,0,0,1,51,69.66a7.93,7.93,0,0,1-4.52,4.49,9.81,9.81,0,0,1-7,0,8,8,0,0,1-2.73-1.78A8.11,8.11,0,0,1,35,69.66a9.32,9.32,0,0,1,0-6.79,8.08,8.08,0,0,1,4.52-4.49,9.81,9.81,0,0,1,7,0A8,8,0,0,1,51,62.87,8.8,8.8,0,0,1,51.66,66.27Zm-2.5,0a7.42,7.42,0,0,0-.43-2.55,6.27,6.27,0,0,0-1.23-2.08,5.82,5.82,0,0,0-1.94-1.4A6.12,6.12,0,0,0,43,59.72a6,6,0,0,0-2.55.52,5.74,5.74,0,0,0-1.92,1.4,6.27,6.27,0,0,0-1.23,2.08,7.42,7.42,0,0,0-.43,2.55,7.32,7.32,0,0,0,.43,2.54,6.17,6.17,0,0,0,1.23,2.08,5.58,5.58,0,0,0,1.92,1.39,6.11,6.11,0,0,0,2.55.5,6.27,6.27,0,0,0,2.57-.5,5.66,5.66,0,0,0,1.94-1.39,6.17,6.17,0,0,0,1.23-2.08A7.32,7.32,0,0,0,49.16,66.27Z" transform="translate(-13.53 -43.52)" style="fill:#fff"/><path d="M59.07,82.7H56.72V58.16h2.35V61h.11a6.4,6.4,0,0,1,2.68-2.4,7.68,7.68,0,0,1,3.42-.82,8.7,8.7,0,0,1,3.45.66,8,8,0,0,1,2.63,1.8,8.2,8.2,0,0,1,1.7,2.71,9.56,9.56,0,0,1,0,6.72,8.16,8.16,0,0,1-1.7,2.7,7.87,7.87,0,0,1-2.63,1.81,8.88,8.88,0,0,1-3.45.65A7.8,7.8,0,0,1,61.86,74a6.54,6.54,0,0,1-2.68-2.34h-.11Zm12.1-16.43a7.66,7.66,0,0,0-.42-2.55,6,6,0,0,0-1.19-2.08,5.49,5.49,0,0,0-1.93-1.4,6.13,6.13,0,0,0-2.6-.52,6,6,0,0,0-4.47,1.89,6.49,6.49,0,0,0-1.3,2.08,7,7,0,0,0-.46,2.58,7.08,7.08,0,0,0,.46,2.58,6.4,6.4,0,0,0,1.3,2.06,6.11,6.11,0,0,0,2,1.37,6,6,0,0,0,2.49.5,6.28,6.28,0,0,0,2.6-.5,5.35,5.35,0,0,0,1.93-1.39,5.93,5.93,0,0,0,1.19-2.08A7.56,7.56,0,0,0,71.17,66.27Z" transform="translate(-13.53 -43.52)" style="fill:#fff"/><path d="M94.7,60.13H90.13v9.46a5.55,5.55,0,0,0,.17,1.49,2.12,2.12,0,0,0,.5.92,1.71,1.71,0,0,0,.78.45,3.39,3.39,0,0,0,1,.13,4.24,4.24,0,0,0,1-.14,5.93,5.93,0,0,0,1-.38l.1,2a6.93,6.93,0,0,1-1.3.36,8.37,8.37,0,0,1-1.47.13,5.83,5.83,0,0,1-1.39-.18,3.4,3.4,0,0,1-1.35-.66,3.69,3.69,0,0,1-1-1.31,5.07,5.07,0,0,1-.4-2.19V60.13H84.41v-2h3.36V53.58h2.36v4.58H94.7Z" transform="translate(-13.53 -43.52)" style="fill:#fff"/><path d="M108.6,63.88a4.08,4.08,0,0,0-1.11-3.13,4.55,4.55,0,0,0-3.22-1,6.88,6.88,0,0,0-2.7.52,6.43,6.43,0,0,0-2.12,1.38l-1.32-1.56a7.8,7.8,0,0,1,2.66-1.66,9.91,9.91,0,0,1,3.72-.66,8.13,8.13,0,0,1,2.46.36,5.76,5.76,0,0,1,2,1.1A4.81,4.81,0,0,1,110.33,61a6.35,6.35,0,0,1,.49,2.6v7.11c0,.62,0,1.27.07,1.94a12.89,12.89,0,0,0,.21,1.7H109c-.07-.39-.12-.82-.17-1.28a12.78,12.78,0,0,1-.07-1.36h-.07a6.82,6.82,0,0,1-2.51,2.34,7.34,7.34,0,0,1-3.38.71,7.21,7.21,0,0,1-1.92-.26,5.28,5.28,0,0,1-1.81-.85,4.78,4.78,0,0,1-1.35-1.53,4.51,4.51,0,0,1-.54-2.29,4.36,4.36,0,0,1,1-3,5.66,5.66,0,0,1,2.55-1.63,15.17,15.17,0,0,1,3.65-.7c1.38-.1,2.8-.15,4.28-.15Zm-.69,2.39c-1,0-2,0-2.93.12a13,13,0,0,0-2.67.48,5.18,5.18,0,0,0-2,1.06,2.36,2.36,0,0,0-.76,1.84,2.91,2.91,0,0,0,.33,1.45,2.71,2.71,0,0,0,.88,1,4,4,0,0,0,1.23.52,6.32,6.32,0,0,0,1.37.15,5.36,5.36,0,0,0,2.22-.43,4.66,4.66,0,0,0,1.63-1.18,5.45,5.45,0,0,0,1-1.71,6.08,6.08,0,0,0,.34-2V66.27Z" transform="translate(-13.53 -43.52)" style="fill:#fff"/><path d="M119.31,71.64v2.74H117V48.17h2.35V61h.07a6.77,6.77,0,0,1,2.7-2.4,7.66,7.66,0,0,1,3.44-.82,8.61,8.61,0,0,1,3.44.66,7.93,7.93,0,0,1,2.64,1.8,8.2,8.2,0,0,1,1.7,2.71,9.71,9.71,0,0,1,0,6.72,8.16,8.16,0,0,1-1.7,2.7A7.81,7.81,0,0,1,129,74.14a8.79,8.79,0,0,1-3.44.65,7.9,7.9,0,0,1-3.44-.79,6.74,6.74,0,0,1-2.7-2.36Zm12.1-5.37a7.66,7.66,0,0,0-.42-2.55,6,6,0,0,0-1.19-2.08,5.49,5.49,0,0,0-1.93-1.4,6.16,6.16,0,0,0-2.6-.52,6,6,0,0,0-4.47,1.89,6.32,6.32,0,0,0-1.3,2.08,7,7,0,0,0-.46,2.58,7.08,7.08,0,0,0,.46,2.58,6.23,6.23,0,0,0,1.3,2.06,6.11,6.11,0,0,0,2,1.37,6,6,0,0,0,2.49.5,6.32,6.32,0,0,0,2.6-.5,5.35,5.35,0,0,0,1.93-1.39A5.93,5.93,0,0,0,131,68.81,7.56,7.56,0,0,0,131.41,66.27Z" transform="translate(-13.53 -43.52)" style="fill:#fff"/><path d="M147.59,62A4.11,4.11,0,0,0,146,60.36a4.55,4.55,0,0,0-2.41-.64,5.9,5.9,0,0,0-1.25.13,3.66,3.66,0,0,0-1.11.46,2.45,2.45,0,0,0-.78.79,2.26,2.26,0,0,0-.29,1.15,2,2,0,0,0,.93,1.75,9.25,9.25,0,0,0,2.95,1,9.73,9.73,0,0,1,4.25,1.72,3.72,3.72,0,0,1,1.36,3,4.71,4.71,0,0,1-.53,2.34,4.8,4.8,0,0,1-1.41,1.56,5.64,5.64,0,0,1-1.95.86,9.21,9.21,0,0,1-2.21.26A8.78,8.78,0,0,1,140,74a6.62,6.62,0,0,1-2.84-2.39L139,70.25a5.26,5.26,0,0,0,4.51,2.53,7,7,0,0,0,1.46-.14,3.34,3.34,0,0,0,1.21-.48,2.79,2.79,0,0,0,.83-.88,2.63,2.63,0,0,0,.31-1.34A2.06,2.06,0,0,0,146.12,68a15.87,15.87,0,0,0-3.55-1.2c-.49-.11-1-.26-1.54-.43a5.23,5.23,0,0,1-1.51-.76,4.09,4.09,0,0,1-1.14-1.27,3.6,3.6,0,0,1-.46-1.91,4.41,4.41,0,0,1,.49-2.13,4.22,4.22,0,0,1,1.3-1.45,5.7,5.7,0,0,1,1.85-.85,8.13,8.13,0,0,1,2.15-.28,7.73,7.73,0,0,1,3.3.76,5.34,5.34,0,0,1,2.39,2.15Z" transform="translate(-13.53 -43.52)" style="fill:#fff"/></svg>