<svg id="Layer_1" data-name="Layer 1" xmlns="http://www.w3.org/2000/svg" viewBox="0 0 490.14 261.59"><rect width="490.14" height="261.59" style="fill:#ead5ff"/><path d="M135.6,370.79a27.11,27.11,0,0,1,5.21-6.1,36.94,36.94,0,0,1,7.27-5,41,41,0,0,1,8.7-3.41,37.07,37.07,0,0,1,9.7-1.26A43.72,43.72,0,0,1,182,357.6a34.3,34.3,0,0,1,11.93,7.45,32.89,32.89,0,0,1,7.72,11.49,38.7,38.7,0,0,1,2.7,14.72,54.59,54.59,0,0,1-3.77,20.28,51.9,51.9,0,0,1-10.33,16.52,48.84,48.84,0,0,1-15.61,11.13A46.94,46.94,0,0,1,155,443.32a36.85,36.85,0,0,1-17.15-4.13A27.45,27.45,0,0,1,125.73,427h-.36l-10.24,57.27h-12l22.62-127.1h12l-2.51,13.64ZM191.79,392a32,32,0,0,0-1.71-10.52,23.68,23.68,0,0,0-13.37-14.4,28.61,28.61,0,0,0-11.31-2.07,33.86,33.86,0,0,0-14.72,3.24,36.72,36.72,0,0,0-11.85,8.91,42.83,42.83,0,0,0-7.9,13.14,43.61,43.61,0,0,0-2.87,15.75A30.3,30.3,0,0,0,130,417a24.8,24.8,0,0,0,5.47,8.64,24.34,24.34,0,0,0,8.53,5.67,29.93,29.93,0,0,0,11.22,2,34.13,34.13,0,0,0,15-3.23,35.61,35.61,0,0,0,11.58-8.82,39.52,39.52,0,0,0,7.45-13.06A48.68,48.68,0,0,0,191.79,392Z" transform="translate(-60.93 -265.21)" style="fill:#000000"/><path d="M285.32,389.64c.36-2,.6-3.62.72-4.76a29.92,29.92,0,0,0,.18-3.14q0-9.15-5.21-12.92t-14.54-3.77a36.85,36.85,0,0,0-14.54,3,42.26,42.26,0,0,0-11.67,7.09L234.87,367A47.52,47.52,0,0,1,250,358.31,51.09,51.09,0,0,1,267.73,355a47.51,47.51,0,0,1,11.4,1.35,26.65,26.65,0,0,1,9.51,4.31,21.86,21.86,0,0,1,6.46,7.54,23.26,23.26,0,0,1,2.43,11c0,1.08-.06,2.54-.18,4.4a35.55,35.55,0,0,1-.54,4.57l-6.1,34.11c-.61,3.23-1.08,6.59-1.44,10.06a87.48,87.48,0,0,0-.54,8.79H278q0-3,.27-6.64c.18-2.39.45-4.73.81-7h-.36a61.14,61.14,0,0,1-7.18,7.09,34.91,34.91,0,0,1-7.45,4.76,34.16,34.16,0,0,1-8.26,2.6,53.25,53.25,0,0,1-9.61.81,37.47,37.47,0,0,1-8.79-1.08,23.37,23.37,0,0,1-8.17-3.68,21.16,21.16,0,0,1-6.1-6.73,19.86,19.86,0,0,1-2.43-10.23q0-10.05,5.75-16.25a37,37,0,0,1,15-9.51,87.12,87.12,0,0,1,20.73-4.49A228.47,228.47,0,0,1,285.32,389.64Zm-4.49,9.16q-8.07,0-16.51.8A71.56,71.56,0,0,0,249,402.66a30.19,30.19,0,0,0-11.31,6.28,13.79,13.79,0,0,0-4.4,10.68,13.37,13.37,0,0,0,1.43,6.55,11.12,11.12,0,0,0,3.86,4.13,16.36,16.36,0,0,0,5.57,2.16,32.3,32.3,0,0,0,6.37.63,31.55,31.55,0,0,0,11.85-2.16,31.18,31.18,0,0,0,9.51-5.92,33.42,33.42,0,0,0,6.83-8.71,36.32,36.32,0,0,0,3.77-10.5l1.25-7Z" transform="translate(-60.93 -265.21)" style="fill:#000000
"/><path d="M318.53,407.05a55.56,55.56,0,0,1,3.68-20.28,49.22,49.22,0,0,1,26-27.65A46.87,46.87,0,0,1,367.9,355,36.81,36.81,0,0,1,385,359.12a27.47,27.47,0,0,1,12.12,12.21h.36l11.67-65.88h12L397.16,441.16h-12l2.52-13.82h-.36a35.09,35.09,0,0,1-12.39,11.22,36.4,36.4,0,0,1-18.49,4.76,43.69,43.69,0,0,1-15.53-2.61,34.25,34.25,0,0,1-11.94-7.45,33,33,0,0,1-7.72-11.48A39,39,0,0,1,318.53,407.05Zm12.57-.78a31.8,31.8,0,0,0,1.7,10.62,24.36,24.36,0,0,0,5.12,8.55,23.86,23.86,0,0,0,8.26,5.76,28.79,28.79,0,0,0,11.31,2.06A33.89,33.89,0,0,0,372.21,430a36.79,36.79,0,0,0,11.84-8.91,43.3,43.3,0,0,0,10.78-28.9,30.28,30.28,0,0,0-1.89-10.88,25.09,25.09,0,0,0-5.47-8.64,24.34,24.34,0,0,0-8.62-5.67,30.12,30.12,0,0,0-11.13-2,34.11,34.11,0,0,0-15,3.24,35.61,35.61,0,0,0-11.58,8.82,39.4,39.4,0,0,0-7.45,13.05A48.51,48.51,0,0,0,331.1,406.27Z" transform="translate(-60.93 -265.21)" style="fill:#000000"/><path d="M492.84,389.64c.36-2,.6-3.62.72-4.76a29.92,29.92,0,0,0,.18-3.14q0-9.15-5.2-12.92T474,365.05a36.89,36.89,0,0,0-14.54,3,42.41,42.41,0,0,0-11.67,7.09L442.4,367a47.41,47.41,0,0,1,15.08-8.71A51,51,0,0,1,475.25,355a47.45,47.45,0,0,1,11.4,1.35,26.7,26.7,0,0,1,9.52,4.31,22,22,0,0,1,6.46,7.54,23.38,23.38,0,0,1,2.42,11c0,1.08-.06,2.54-.18,4.4a35.55,35.55,0,0,1-.54,4.57l-6.1,34.11c-.6,3.23-1.08,6.59-1.44,10.06a87.48,87.48,0,0,0-.54,8.79H485.48q0-3,.27-6.64c.18-2.39.45-4.73.81-7h-.36a60.38,60.38,0,0,1-7.18,7.09,34.91,34.91,0,0,1-7.45,4.76,34,34,0,0,1-8.26,2.6,53.06,53.06,0,0,1-9.6.81,37.55,37.55,0,0,1-8.8-1.08,23.45,23.45,0,0,1-8.17-3.68,21.27,21.27,0,0,1-6.1-6.73,19.86,19.86,0,0,1-2.42-10.23q0-10.05,5.74-16.25a37.09,37.09,0,0,1,15-9.51,87.1,87.1,0,0,1,20.74-4.49A228.13,228.13,0,0,1,492.84,389.64Zm-4.48,9.16q-8.08,0-16.52.8a71.68,71.68,0,0,0-15.35,3.06,30.19,30.19,0,0,0-11.31,6.28,13.82,13.82,0,0,0-4.4,10.68,13.37,13.37,0,0,0,1.44,6.55,11,11,0,0,0,3.86,4.13,16.3,16.3,0,0,0,5.56,2.16,32.4,32.4,0,0,0,6.38.63A31.06,31.06,0,0,0,479.38,425a33.38,33.38,0,0,0,6.82-8.71A36,36,0,0,0,490,405.8l1.26-7Z" transform="translate(-60.93 -265.21)" style="fill:#000000"/></svg>